<svg xmlns="http://www.w3.org/2000/svg" version="1.1" xmlns:xlink="http://www.w3.org/1999/xlink" xmlns:svgjs="http://svgjs.com/svgjs" width="512" height="512" x="0" y="0" viewBox="0 0 64 64" style="enable-background:new 0 0 512 512" xml:space="preserve" class=""><g><linearGradient id="a" x1="8.127" x2="55.877" y1="32.013" y2="32.013" gradientUnits="userSpaceOnUse"><stop offset="0" stop-color="#7f00ff"></stop><stop offset="1" stop-color="#e100ff"></stop></linearGradient><path fill="url(#a)" d="M55.87 17.23c-.01-3.1-.01-5.77 0-6.13a1.006 1.006 0 0 0-.75-.99c-4.13-1.09-10.52-2.8-15.5-4.12C34.293 4.6 33.134 4.217 32 4.02c-1.119.174-2.314.598-7.64 1.98C19.38 7.32 13 9.02 8.88 10.11a1.005 1.005 0 0 0-.75.95c0 .16-.02 19.13.04 19.78a27.262 27.262 0 0 0 5.51 15.61 43.105 43.105 0 0 0 16.58 13.17 3.842 3.842 0 0 0 1.6.38 4.019 4.019 0 0 0 1.89-.38 43.413 43.413 0 0 0 6.47-3.63c8.597-5.8 15.417-14.591 15.62-25.15.02-.663.05-3.814.03-13.61zM51.85 30.5c-.082 9.34-6.354 17.029-13.86 22.15a40.937 40.937 0 0 1-5.57 3.15 1.027 1.027 0 0 1-.84 0c-9.948-4.756-19.183-13.655-19.41-25.11-.04-1.1-.05-11.52-.05-16.56a1.005 1.005 0 0 1 .75-.96c5.939-1.59 12.92-3.438 18.88-5.03a1.098 1.098 0 0 1 .51 0c5.96 1.597 12.913 3.44 18.86 5.02a.997.997 0 0 1 .74.97l.01 3.08c.01 4.58.02 12.23-.02 13.29zM43.8 44.9a35.117 35.117 0 0 1-6.93 6.09A36.39 36.39 0 0 1 32 53.78a37.382 37.382 0 0 1-11.8-8.87 13.516 13.516 0 0 1 23.6-.01zm-11.85-8.92c-10.206-.437-10.156-15.066.05-15.45a7.725 7.725 0 1 1-.05 15.45zm17.9-5.59a21.12 21.12 0 0 1-4.69 12.88 15.389 15.389 0 0 0-8.4-6.54c8.614-4.862 5.258-18.126-4.76-18.2-10.016.074-13.37 13.329-4.77 18.2a15.367 15.367 0 0 0-8.39 6.54 21.043 21.043 0 0 1-4.68-12.73c-.02-.89-.04-9.9-.04-15.64 5.705-1.518 12.2-3.225 17.88-4.76 5.68 1.515 12.148 3.234 17.87 4.76.011 4.199.013 14.062-.02 15.49z" data-original="url(#a)" class=""></path></g></svg>