<svg xmlns="http://www.w3.org/2000/svg" version="1.1" xmlns:xlink="http://www.w3.org/1999/xlink" xmlns:svgjs="http://svgjs.com/svgjs" width="512" height="512" x="0" y="0" viewBox="0 0 24 24" style="enable-background:new 0 0 512 512" xml:space="preserve" class=""><g><path d="M24 3.5v17c0 1.93-1.57 3.5-3.5 3.5h-4a.5.5 0 0 1 0-1h4c1.378 0 2.5-1.122 2.5-2.5v-17C23 2.122 21.878 1 20.5 1h-4a.5.5 0 0 1 0-1h4C22.43 0 24 1.57 24 3.5Zm-5.925 10.89-6.152 5.899a2.184 2.184 0 0 1-2.418.557c-.91-.356-1.501-1.249-1.504-2.275v-2.57H2.5a2.503 2.503 0 0 1-2.5-2.5v-3c0-1.378 1.122-2.5 2.5-2.5H8v-2.57c.005-1.028.596-1.92 1.506-2.276.86-.333 1.793-.114 2.437.577l6.112 5.857c1.246 1.338 1.246 3.483.02 4.803Zm-.732-4.101-6.112-5.857c-.384-.411-.884-.534-1.361-.347-.418.164-.867.603-.87 1.347V8.5a.5.5 0 0 1-.5.5h-6C1.673 9 1 9.673 1 10.5v3c0 .827.673 1.5 1.5 1.5h6a.5.5 0 0 1 .5.5v3.069c.002.742.451 1.182.869 1.346.476.186.978.063 1.341-.327l6.152-5.899c.857-.923.858-2.458-.02-3.4Z" fill="#ffffff" data-original="#000000" class=""></path></g></svg>