<svg xmlns="http://www.w3.org/2000/svg" version="1.1" xmlns:xlink="http://www.w3.org/1999/xlink" xmlns:svgjs="http://svgjs.com/svgjs" width="512" height="512" x="0" y="0" viewBox="0 0 512 512" style="enable-background:new 0 0 512 512" xml:space="preserve" class=""><g><linearGradient id="a" x1="0" x2="512" y1="-18974" y2="-18974" gradientTransform="matrix(1 0 0 -1 0 -18718)" gradientUnits="userSpaceOnUse"><stop offset="0" stop-color="#00f38d"></stop><stop offset="1" stop-color="#009eff"></stop></linearGradient><path fill="url(#a)" d="M512 256c0 141.387-114.613 256-256 256S0 397.387 0 256 114.613 0 256 0s256 114.613 256 256zm0 0" data-original="url(#a)" class=""></path><g fill="#fff"><path d="M333.54 260.836c0 6.976-5.657 12.629-12.63 12.629-6.976 0-12.629-5.653-12.629-12.63 0-6.972 5.653-12.628 12.63-12.628 6.972 0 12.628 5.656 12.628 12.629zM333.54 298.727c0 6.972-5.657 12.628-12.63 12.628-6.976 0-12.633-5.656-12.633-12.628 0-6.977 5.657-12.633 12.633-12.633 6.973 0 12.63 5.656 12.63 12.633zM333.54 336.613c0 6.977-5.657 12.63-12.63 12.63-6.976 0-12.629-5.653-12.629-12.63 0-6.972 5.653-12.629 12.63-12.629 6.972 0 12.628 5.657 12.628 12.63zM304.488 173.691c0 6.973-5.656 12.63-12.629 12.63-6.976 0-12.629-5.657-12.629-12.63 0-6.976 5.653-12.629 12.63-12.629 6.972 0 12.628 5.653 12.628 12.63zm0 0" fill="#ffffff" data-original="#ffffff" class=""></path><path d="M403 275.836h15V195.32h-34.574c-12.621 0-22.89-10.27-22.89-22.89 0-8.563 4.73-16.344 12.347-20.313l12.773-6.652-34.136-72.57L91.965 195.32h-2.02v80.516h15c12.621 0 22.89 10.27 22.89 22.89 0 12.622-10.269 22.887-22.89 22.887h-15v80.52H418v-80.52h-15c-12.621 0-22.89-10.265-22.89-22.886 0-12.622 10.269-22.891 22.89-22.891zM265.441 146.664c3.54 4.602 9.91 6.297 15.38 3.727 5.48-2.578 8.234-8.582 6.933-14.25l49.402-23.301 9.946 21.137c-10.45 9.843-16.567 23.64-16.567 38.457a52.582 52.582 0 0 0 5.215 22.886H162.285zM388 349.445v22.688h-54.691c-1.11-5.844-6.235-10.262-12.399-10.262-6.164 0-11.289 4.418-12.398 10.262H119.945v-22.688c21.88-6.48 37.89-26.765 37.89-50.718 0-23.957-16.01-44.243-37.89-50.723v-22.688h188.563c1.11 5.844 6.238 10.262 12.398 10.262 6.164 0 11.293-4.418 12.403-10.262H388v22.688c-21.883 6.48-37.89 26.766-37.89 50.723 0 23.953 16.007 44.238 37.89 50.718zm0 0" fill="#ffffff" data-original="#ffffff" class=""></path></g></g></svg>