<svg xmlns="http://www.w3.org/2000/svg" version="1.1" xmlns:xlink="http://www.w3.org/1999/xlink" xmlns:svgjs="http://svgjs.com/svgjs" width="512" height="512" x="0" y="0" viewBox="0 0 64 64" style="enable-background:new 0 0 512 512" xml:space="preserve" class=""><g><g xmlns="http://www.w3.org/2000/svg" id="User"><path d="m32 1a31 31 0 1 0 31 31 31.0351 31.0351 0 0 0 -31-31zm0 60a29 29 0 1 1 29-29 29.0331 29.0331 0 0 1 -29 29z" data-original="#000000" class=""></path><path d="m53.5874 46.7529a30.9971 30.9971 0 0 0 -43.1748 0 1 1 0 0 0 1.3945 1.4336 28.9973 28.9973 0 0 1 40.3858 0 1 1 0 0 0 1.3945-1.4336z" data-original="#000000" class=""></path><path d="m32 34a12 12 0 1 0 -12-12 12.0134 12.0134 0 0 0 12 12zm0-22a10 10 0 1 1 -10 10 10.0114 10.0114 0 0 1 10-10z" data-original="#000000" class=""></path></g></g></svg>