<svg xmlns="http://www.w3.org/2000/svg" version="1.1" xmlns:xlink="http://www.w3.org/1999/xlink" xmlns:svgjs="http://svgjs.com/svgjs" width="512" height="512" x="0" y="0" viewBox="0 0 220 220" style="enable-background:new 0 0 512 512" xml:space="preserve" class=""><g><script id="youtube-hd-fjdmkanbdloodhegphphhklnjfngoffa">var ythdlog = () =&gt; {};;var ythderror = () =&gt; {};</script><g xmlns="http://www.w3.org/2000/svg" id="a"><g fill="rgb(0,0,0)"><path d="m176.54 112.18h-133.08c-2.21 0-4-1.79-4-4s1.79-4 4-4h133.08c2.21 0 4 1.79 4 4s-1.79 4-4 4z" fill="#000000" data-original="#000000" class=""></path><path d="m160 47.18h-117c-2.21 0-4-1.79-4-4s1.79-4 4-4h117c2.21 0 4 1.79 4 4s-1.79 4-4 4z" fill="#000000" data-original="#000000" class=""></path><path d="m135 181.18h-92c-2.21 0-4-1.79-4-4s1.79-4 4-4h92c2.21 0 4 1.79 4 4s-1.79 4-4 4z" fill="#000000" data-original="#000000" class=""></path></g></g></g></svg>