<svg xmlns="http://www.w3.org/2000/svg" version="1.1" xmlns:xlink="http://www.w3.org/1999/xlink" xmlns:svgjs="http://svgjs.com/svgjs" width="512" height="512" x="0" y="0" viewBox="0 0 512 512" style="enable-background:new 0 0 512 512" xml:space="preserve" class=""><g><path fill="#fc0005" fill-rule="evenodd" d="M170.8 14.221A14.21 14.21 0 0 1 185 .014L326.991.006a14.233 14.233 0 0 1 14.2 14.223v35.117H170.8zm233.461 477.443a21.75 21.75 0 0 1-21.856 20.33H127.954a21.968 21.968 0 0 1-21.854-20.416L84.326 173.06H427.5l-23.234 318.6zm56.568-347.452H51.171v-33A33.035 33.035 0 0 1 84.176 78.2l343.644-.011a33.051 33.051 0 0 1 33 33.02v33zm-270.79 291.851a14.422 14.422 0 1 0 28.844 0V233.816a14.42 14.42 0 0 0-28.839-.01v202.257zm102.9 0a14.424 14.424 0 1 0 28.848 0V233.816a14.422 14.422 0 0 0-28.843-.01z" data-original="#fc0005" class=""></path></g></svg>