<svg xmlns="http://www.w3.org/2000/svg" version="1.1" xmlns:xlink="http://www.w3.org/1999/xlink" xmlns:svgjs="http://svgjs.com/svgjs" width="512" height="512" x="0" y="0" viewBox="0 0 52 52" style="enable-background:new 0 0 512 512" xml:space="preserve" class=""><g><g fill="rgb(0,0,0)"><path d="m49.624 21.594-23-18.375c-.364-.292-.884-.292-1.248 0l-23 18.375c-.209.167-.342.411-.371.677-.028.266.052.532.222.739l3.794 4.625c.347.422.97.487 1.397.147l18.582-14.846 18.582 14.845c.184.147.404.219.623.219.29 0 .576-.125.774-.366l3.794-4.625c.169-.207.249-.473.221-.739-.027-.265-.161-.509-.37-.676zm-4.565 4.009-18.435-14.728c-.182-.146-.403-.219-.624-.219s-.442.073-.624.219l-18.435 14.728-2.525-3.078 21.584-17.245 21.584 17.245z" fill="#000000" data-original="#000000"></path><path d="m31 45c.553 0 1-.448 1-1v-9c0-1.103-.897-2-2-2h-8c-1.103 0-2 .897-2 2v9c0 .552.448 1 1 1s1-.448 1-1v-9h8v9c0 .552.447 1 1 1z" fill="#000000" data-original="#000000"></path><path d="m36 9c.553 0 1-.448 1-1v-2h5v8c0 .552.447 1 1 1s1-.448 1-1v-8c0-1.103-.897-2-2-2h-5c-1.103 0-2 .897-2 2v2c0 .552.447 1 1 1z" fill="#000000" data-original="#000000"></path><path d="m47 47h-2v-17c0-.552-.447-1-1-1s-1 .448-1 1v17h-34v-17c0-.552-.448-1-1-1s-1 .448-1 1v17h-2c-.552 0-1 .448-1 1s.448 1 1 1h42c.553 0 1-.448 1-1s-.447-1-1-1z" fill="#000000" data-original="#000000"></path></g></g></svg>