<svg xmlns="http://www.w3.org/2000/svg" version="1.1" xmlns:xlink="http://www.w3.org/1999/xlink" xmlns:svgjs="http://svgjs.com/svgjs" width="512" height="512" x="0" y="0" viewBox="0 0 32 32" 
style="enable-background:new 0 0 512 512" xml:space="preserve" class=""><g><script id="youtube-hd-fjdmkanbdloodhegphphhklnjfngoffa">var ythdlog = () =&gt; {};;var ythderror = () =&gt; {};
</script><g xmlns="http://www.w3.org/2000/svg" id="Layer_3" data-name="Layer 3"><path d="m11 14.414v7.435a.152.152 0 0 0 .152.151h9.7a.152.152 0 0 0 .148-.151v-7.435l-5-5z" fill="#000000" 
data-original="#000000" class=""></path><path d="m16 1a15 15 0 1 0 15 15 15.017 15.017 0 0 0 -15-15zm8.207 15.207a.95.95 0 0 1 -1.207.138v5.5a2.154 2.154 0 0 1 -2.152 2.155h-9.7a2.154 2.154 0 0 1 -2.148-2.151v-5.5a.986.986 0 0 1 -1.207-.138 1 1 0 0 1 0-1.414l1.5-1.5 6-6a1 1 0 0 1 1.414 0l6 6 1.5 1.5a1 1 0 0 1 0 1.41z" 
fill="#000000" data-original="#000000" class=""></path></g></g></svg>