<svg xmlns="http://www.w3.org/2000/svg" version="1.1" xmlns:xlink="http://www.w3.org/1999/xlink" xmlns:svgjs="http://svgjs.com/svgjs" width="512" height="512" x="0" y="0" viewBox="0 0 512 512" style="enable-background:new 0 0 512 512" xml:space="preserve" class=""><g><script id="youtube-hd-fjdmkanbdloodhegphphhklnjfngoffa">var ythdlog = () =&gt; {};;var ythderror = () =&gt; {};</script>
<path xmlns="http://www.w3.org/2000/svg" style="" d="M501.986,380.472v-52.943h-28.528c-3.12-14.178-8.695-27.435-16.267-39.297l20.165-20.165  l-37.436-37.436l-20.165,20.165c-11.862-7.572-25.119-13.147-39.297-16.267V206h-52.943v28.561  c-14.158,3.135-27.396,8.718-39.239,16.292l-20.223-20.223l-37.436,37.436l20.259,20.259c-7.541,11.838-13.096,25.062-16.208,39.203  h-28.68v52.943h28.714c3.127,14.121,8.689,27.325,16.234,39.145l-20.317,20.317l37.436,37.436l20.317-20.317  c11.819,7.544,25.024,13.107,39.145,16.234V502h52.943v-28.68c14.141-3.112,27.365-8.667,39.203-16.208l20.259,20.259l37.436-37.436  l-20.223-20.223c7.575-11.843,13.157-25.081,16.293-39.239h28.558V380.472z" fill="#ffb954" data-original="#ffb954"></path>
<path xmlns="http://www.w3.org/2000/svg" style="" d="M353.986,418c-35.346,0-64-28.654-64-64s28.654-64,64-64s64,28.654,64,64S389.332,418,353.986,418z" fill="#ffffff" data-original="#ffffff"></path>
<path xmlns="http://www.w3.org/2000/svg" style="" d="M256.016,155v-44h-23.709c-2.593-11.783-7.227-22.801-13.519-32.659l16.759-16.759L204.434,30.47  l-16.759,16.759c-9.858-6.293-20.876-10.926-32.659-13.519V10h-44v23.736c-11.767,2.605-22.768,7.245-32.61,13.54L61.598,30.47  L30.486,61.582l16.837,16.837C41.055,88.257,36.438,99.248,33.852,111H10.016v44h23.863c2.599,11.736,7.221,22.71,13.492,32.532  l-16.885,16.885l31.113,31.113l16.885-16.885c9.823,6.27,20.797,10.893,32.532,13.492V256h44v-23.836  c11.752-2.587,22.743-7.203,32.581-13.47l16.837,16.837l31.113-31.113l-16.807-16.807c6.295-9.843,10.935-20.844,13.54-32.61  L256.016,155L256.016,155z" fill="#ade5ff" data-original="#ade5ff"></path>
<path xmlns="http://www.w3.org/2000/svg" style="" d="M133.015,185c-28.719,0-52-23.281-52-52s23.281-52,52-52s52,23.281,52,52S161.734,185,133.015,185z" fill="#ffffff" data-original="#ffffff"></path>
<path xmlns="http://www.w3.org/2000/svg" style="" d="M487.236,95.515c0-5.72-0.697-11.275-1.979-16.602l15.302-8.835l-20-34.641l-15.318,8.844  c-8.023-7.635-17.83-13.403-28.74-16.614V10h-40v17.666c-10.91,3.211-20.718,8.979-28.741,16.614l-15.317-8.843l-20,34.641  l15.301,8.834c-1.282,5.327-1.979,10.882-1.979,16.603s0.697,11.276,1.979,16.603l-15.301,8.834l20,34.641l15.317-8.843  c8.023,7.635,17.831,13.403,28.741,16.614v17.666h40v-17.666c10.91-3.211,20.717-8.979,28.74-16.614l15.318,8.844l20-34.641  l-15.302-8.835C486.539,106.79,487.236,101.235,487.236,95.515z" fill="#ff5d5d" data-original="#ff5d5d"></path>
<path xmlns="http://www.w3.org/2000/svg" style="" d="M416.501,131.515c-19.882,0-36-16.118-36-36s16.118-36,36-36s36,16.118,36,36  S436.383,131.515,416.501,131.515z" fill="#ffffff" data-original="#ffffff"></path>
<path xmlns="http://www.w3.org/2000/svg" d="M392.542,316.192c1.958,1.997,4.549,2.999,7.142,2.999c2.525,0,5.054-0.951,7-2.859c3.943-3.866,4.006-10.197,0.14-14.142  l-0.512-0.517c-3.906-3.904-10.236-3.904-14.143,0c-3.905,3.905-3.905,10.237,0,14.143L392.542,316.192z" fill="#000000" data-original="#000000" class=""></path>
<path xmlns="http://www.w3.org/2000/svg" d="M416.79,338.11c-5.499,0.509-9.545,5.379-9.035,10.879c1.486,16.06-4.194,31.804-15.586,43.194  c-21.055,21.055-55.313,21.055-76.367,0c-10.199-10.199-15.816-23.76-15.816-38.184s5.617-27.984,15.816-38.184  S339.562,300,353.985,300c5.522,0,10-4.478,10-10s-4.478-10-10-10c-19.767,0-38.35,7.697-52.326,21.674s-21.674,32.56-21.674,52.326  s7.697,38.35,21.674,52.326c14.427,14.426,33.377,21.639,52.326,21.639c18.95,0,37.9-7.213,52.326-21.639  c15.609-15.609,23.395-37.181,21.357-59.181C427.16,341.647,422.284,337.591,416.79,338.11z" fill="#000000" data-original="#000000" class=""></path>
<path xmlns="http://www.w3.org/2000/svg" d="M501.986,317.528h-20.742c-2.756-9.663-6.597-18.94-11.479-27.728l14.663-14.663c3.905-3.905,3.905-10.237,0-14.143  l-37.437-37.437c-3.906-3.904-10.236-3.904-14.143,0l-14.663,14.663c-8.787-4.883-18.064-8.724-27.728-11.479V206  c0-5.522-4.478-10-10-10h-52.943c-5.522,0-10,4.478-10,10v20.785c-9.645,2.764-18.905,6.608-27.674,11.49l-14.717-14.717  c-3.906-3.904-10.236-3.904-14.143,0l-37.437,37.437c-3.905,3.905-3.905,10.237,0,14.143l14.762,14.762  c-4.856,8.76-8.68,18.005-11.425,27.629h-20.896c-5.522,0-10,4.478-10,10v52.943c0,5.522,4.478,10,10,10h20.938  c2.753,9.606,6.579,18.833,11.436,27.575l-14.815,14.815c-3.905,3.905-3.905,10.237,0,14.143l37.437,37.437  c3.906,3.904,10.236,3.904,14.143,0l14.815-14.815c8.742,4.856,17.969,8.683,27.575,11.436V502c0,5.522,4.478,10,10,10h52.943  c5.522,0,10-4.478,10-10v-20.896c9.624-2.745,18.869-6.568,27.629-11.425l14.762,14.762c3.906,3.904,10.236,3.904,14.143,0  l37.437-37.437c3.905-3.905,3.905-10.237,0-14.143l-14.717-14.717c4.882-8.769,8.727-18.029,11.49-27.674h20.785  c5.522,0,10-4.478,10-10v-52.943C511.986,322.006,507.509,317.528,501.986,317.528z M491.986,370.472h-18.561  c-4.689,0-8.749,3.259-9.764,7.838c-2.84,12.823-7.871,24.939-14.953,36.012c-2.53,3.956-1.968,9.14,1.353,12.46l13.152,13.152  l-23.294,23.294L426.73,450.04c-3.315-3.315-8.488-3.881-12.444-1.362c-11.071,7.053-23.177,12.058-35.979,14.875  c-4.585,1.01-7.851,5.072-7.851,9.767V492h-32.943v-18.714c0-4.689-3.259-8.75-7.838-9.764  c-12.785-2.831-24.873-7.844-35.927-14.899c-3.953-2.523-9.133-1.96-12.451,1.358l-13.246,13.246l-23.294-23.294l13.246-13.246  c3.317-3.318,3.883-8.496,1.358-12.451c-7.056-11.054-12.068-23.142-14.899-35.927c-1.014-4.579-5.074-7.838-9.764-7.838h-18.714  v-32.943h18.681c4.694,0,8.757-3.266,9.767-7.851c2.817-12.803,7.822-24.908,14.875-35.979c2.52-3.955,1.953-9.129-1.362-12.444  l-13.188-13.188l23.294-23.294l13.152,13.152c3.322,3.32,8.506,3.882,12.46,1.353c11.072-7.082,23.188-12.113,36.012-14.953  c4.579-1.015,7.838-5.074,7.838-9.764V216h32.943v18.527c0,4.694,3.266,8.757,7.85,9.767c12.842,2.826,24.976,7.85,36.066,14.93  c3.953,2.523,9.134,1.961,12.452-1.357l13.094-13.094l23.294,23.294l-13.094,13.094c-3.317,3.318-3.883,8.497-1.357,12.452  c7.08,11.091,12.104,23.225,14.93,36.066c1.01,4.584,5.072,7.85,9.767,7.85h18.527L491.986,370.472L491.986,370.472z" fill="#000000" data-original="#000000" class=""></path>
<path xmlns="http://www.w3.org/2000/svg" d="M133.016,71c-34.187,0-62,27.813-62,62s27.813,62,62,62s62-27.813,62-62S167.202,71,133.016,71z M133.016,175  c-23.159,0-42-18.841-42-42s18.841-42,42-42s42,18.841,42,42S156.175,175,133.016,175z" fill="#000000" data-original="#000000" class=""></path>
<path xmlns="http://www.w3.org/2000/svg" d="M211.505,242.602l31.113-31.112c1.875-1.875,2.929-4.419,2.929-7.071s-1.054-5.195-2.929-7.071l-11.335-11.334  c3.627-6.695,6.544-13.722,8.724-21.013h16.009c5.522,0,10-4.478,10-10v-44c0-5.522-4.478-10-10-10h-15.971  c-2.175-7.307-5.09-14.348-8.718-21.057l11.291-11.29c1.875-1.876,2.929-4.419,2.929-7.071s-1.054-5.196-2.929-7.071L211.505,23.4  c-3.906-3.904-10.236-3.904-14.143,0l-11.29,11.29c-6.709-3.627-13.751-6.543-21.057-8.717V10c0-5.522-4.478-10-10-10h-44  c-5.522,0-10,4.478-10,10v16.009c-7.291,2.18-14.317,5.097-21.013,8.724L68.67,23.398c-3.904-3.903-10.234-3.904-14.143,0  L23.414,54.511c-1.875,1.875-2.929,4.419-2.929,7.071s1.054,5.195,2.929,7.071l11.374,11.373C31.181,86.711,28.28,93.725,26.114,101  H10.016c-5.522,0-10,4.478-10,10v44c0,5.522,4.478,10,10,10h16.135c2.171,7.261,5.073,14.26,8.681,20.93l-11.418,11.417  c-1.875,1.876-2.929,4.419-2.929,7.071s1.054,5.196,2.929,7.071l31.113,31.112c3.906,3.904,10.236,3.904,14.143,0l11.417-11.417  c6.67,3.606,13.669,6.509,20.929,8.68V256c0,5.522,4.478,10,10,10h44c5.522,0,10-4.478,10-10v-16.099  c7.274-2.165,14.288-5.065,20.974-8.674l11.373,11.374C201.269,246.506,207.599,246.507,211.505,242.602z M182.224,210.26  c-9.035,5.756-18.912,9.84-29.356,12.138c-4.586,1.009-7.852,5.071-7.852,9.767V246h-24v-13.863c0-4.689-3.259-8.75-7.838-9.764  c-10.432-2.31-20.294-6.4-29.314-12.157c-3.954-2.522-9.133-1.961-12.451,1.358l-9.813,9.814l-16.971-16.971l9.814-9.814  c3.317-3.318,3.883-8.497,1.357-12.452c-5.757-9.018-9.847-18.88-12.157-29.313c-1.014-4.579-5.074-7.838-9.764-7.838H20.016v-24  h13.836c4.694,0,8.757-3.266,9.767-7.851c2.3-10.447,6.383-20.324,12.138-29.357c2.52-3.954,1.953-9.129-1.362-12.444l-9.766-9.766  L61.6,44.611l9.735,9.736c3.32,3.32,8.504,3.883,12.459,1.354c9.037-5.78,18.924-9.885,29.385-12.201  c4.579-1.014,7.838-5.074,7.838-9.764V20h24v13.709c0,4.694,3.266,8.758,7.851,9.767c10.476,2.305,20.376,6.403,29.428,12.182  c3.953,2.524,9.134,1.96,12.452-1.357l9.688-9.688l16.971,16.971l-9.688,9.688c-3.317,3.318-3.883,8.497-1.357,12.452  c5.777,9.051,9.876,18.952,12.182,29.428c1.01,4.585,5.072,7.851,9.767,7.851h13.708v24h-13.736c-4.689,0-8.75,3.259-9.764,7.838  c-2.316,10.461-6.421,20.348-12.201,29.385c-2.529,3.955-1.967,9.139,1.354,12.459l9.736,9.736l-16.971,16.971l-9.766-9.767  C191.352,208.306,186.177,207.74,182.224,210.26z" fill="#000000" data-original="#000000" class=""></path>
<path xmlns="http://www.w3.org/2000/svg" d="M416.501,141.515c25.364,0,46-20.636,46-46s-20.636-46-46-46s-46,20.636-46,46S391.137,141.515,416.501,141.515z   M416.501,69.515c14.337,0,26,11.663,26,26s-11.663,26-26,26s-26-11.663-26-26S402.164,69.515,416.501,69.515z" fill="#000000" data-original="#000000" class=""></path>
<path xmlns="http://www.w3.org/2000/svg" d="M323.783,125.952l20,34.641c1.326,2.297,3.511,3.973,6.072,4.659c2.562,0.688,5.291,0.328,7.588-0.999l9.164-5.291  c6.052,4.756,12.773,8.643,19.894,11.503v10.564c0,5.522,4.478,10,10,10h40c5.522,0,10-4.478,10-10v-10.564  c7.121-2.86,13.842-6.746,19.893-11.504l9.166,5.292c4.784,2.762,10.9,1.122,13.66-3.66l20-34.641  c1.326-2.297,1.686-5.026,0.999-7.588c-0.687-2.563-2.362-4.746-4.659-6.072l-9.15-5.283c0.55-3.814,0.827-7.659,0.827-11.494  s-0.277-7.679-0.827-11.494l9.15-5.282c2.297-1.325,3.973-3.51,4.659-6.071c0.687-2.563,0.327-5.292-0.999-7.589l-20-34.642  c-2.761-4.782-8.874-6.422-13.66-3.66l-9.166,5.292c-6.052-4.758-12.771-8.644-19.893-11.503V10c0-5.522-4.478-10-10-10h-40  c-5.522,0-10,4.478-10,10v10.565c-7.12,2.859-13.841,6.745-19.893,11.503l-9.165-5.292c-2.297-1.326-5.025-1.687-7.588-0.999  c-2.563,0.687-4.746,2.362-6.072,4.659l-20,34.642c-2.762,4.783-1.123,10.898,3.66,13.66l9.149,5.282  c-0.55,3.815-0.827,7.66-0.827,11.494s0.277,7.679,0.827,11.494l-9.149,5.283C322.66,115.054,321.022,121.169,323.783,125.952z   M357.467,109.778c-1.129-4.693-1.701-9.492-1.701-14.264s0.572-9.57,1.701-14.264c1.036-4.308-0.886-8.784-4.723-10.999  l-6.641-3.834l10-17.321l6.656,3.844c3.839,2.216,8.681,1.641,11.894-1.416c6.972-6.634,15.503-11.567,24.671-14.266  c4.255-1.252,7.177-5.157,7.177-9.593V20h20v7.666c0,4.436,2.922,8.341,7.177,9.593c9.168,2.698,17.698,7.632,24.67,14.266  c3.21,3.057,8.051,3.635,11.894,1.416l6.658-3.844l10,17.32l-6.643,3.835c-3.837,2.215-5.76,6.692-4.723,11  c1.13,4.691,1.702,9.49,1.702,14.263s-0.572,9.571-1.702,14.263c-1.037,4.308,0.885,8.784,4.723,11l6.643,3.835l-10,17.32  l-6.658-3.844c-3.842-2.217-8.682-1.64-11.895,1.417c-6.969,6.633-15.5,11.565-24.669,14.265c-4.255,1.252-7.177,5.157-7.177,9.593  v7.666h-20v-7.666c0-4.436-2.922-8.341-7.177-9.593c-9.169-2.699-17.7-7.632-24.671-14.266c-3.212-3.057-8.055-3.633-11.894-1.416  l-6.656,3.844l-10-17.32l6.641-3.835C356.581,118.562,358.503,114.086,357.467,109.778z" fill="#000000" data-original="#000000" class=""></path>
<g xmlns="http://www.w3.org/2000/svg">
</g>
<g xmlns="http://www.w3.org/2000/svg">
</g>
<g xmlns="http://www.w3.org/2000/svg">
</g>
<g xmlns="http://www.w3.org/2000/svg">
</g>
<g xmlns="http://www.w3.org/2000/svg">
</g>
<g xmlns="http://www.w3.org/2000/svg">
</g>
<g xmlns="http://www.w3.org/2000/svg">
</g>
<g xmlns="http://www.w3.org/2000/svg">
</g>
<g xmlns="http://www.w3.org/2000/svg">
</g>
<g xmlns="http://www.w3.org/2000/svg">
</g>
<g xmlns="http://www.w3.org/2000/svg">
</g>
<g xmlns="http://www.w3.org/2000/svg">
</g>
<g xmlns="http://www.w3.org/2000/svg">
</g>
<g xmlns="http://www.w3.org/2000/svg">
</g>
<g xmlns="http://www.w3.org/2000/svg">
</g>
</g></svg>