<svg xmlns="http://www.w3.org/2000/svg" version="1.1" xmlns:xlink="http://www.w3.org/1999/xlink" xmlns:svgjs="http://svgjs.com/svgjs" width="512" height="512" x="0" y="0" viewBox="0 0 512 512" style="enable-background:new 0 0 512 512" xml:space="preserve" class=""><g><path d="m504.426 211.619-61.969-15.497c-3.287-10.258-7.392-20.195-12.251-29.659l32.839-54.738c2.36-3.935 1.74-8.971-1.504-12.215l-49.05-49.051c-3.246-3.245-8.282-3.864-12.216-1.504l-54.739 32.84c-9.497-4.875-19.433-8.981-29.659-12.254l-15.496-61.967c-1.113-4.451-5.112-7.574-9.701-7.574h-69.36c-4.589 0-8.588 3.123-9.701 7.574l-15.496 61.966c-10.227 3.273-20.162 7.379-29.659 12.254l-54.739-32.84c-3.935-2.36-8.971-1.741-12.216 1.504l-49.05 49.051c-3.244 3.244-3.864 8.281-1.504 12.215l32.839 54.738c-4.859 9.464-8.964 19.401-12.251 29.659l-61.969 15.498c-4.451 1.113-7.574 5.112-7.574 9.701v69.36c0 4.588 3.123 8.588 7.574 9.701l61.969 15.497c3.287 10.258 7.392 20.195 12.251 29.659l-32.839 54.738c-2.36 3.935-1.74 8.971 1.504 12.215l49.05 49.051c3.246 3.245 8.281 3.864 12.216 1.504l54.74-32.841c9.484 4.866 19.42 8.971 29.657 12.252l15.497 61.969c1.113 4.451 5.112 7.574 9.701 7.574h69.359c4.589 0 8.588-3.123 9.701-7.574l15.497-61.969c10.237-3.281 20.173-7.386 29.657-12.252l54.74 32.841c3.934 2.36 8.971 1.74 12.216-1.504l49.05-49.051c3.244-3.244 3.864-8.281 1.504-12.215l-32.839-54.738c4.859-9.464 8.964-19.401 12.251-29.659l61.969-15.497c4.451-1.113 7.574-5.113 7.574-9.701v-69.36c.001-4.589-3.122-8.588-7.573-9.701zm-12.426 71.254-59.886 14.976c-3.458.865-6.194 3.504-7.183 6.929-3.66 12.688-8.695 24.872-14.964 36.215-1.726 3.121-1.657 6.924.177 9.982l31.733 52.895-38.009 38.009-52.895-31.733c-3.056-1.833-6.856-1.901-9.977-.18-11.382 6.282-23.568 11.317-36.22 14.967-3.425.988-6.065 3.725-6.93 7.182l-14.974 59.885h-53.744l-14.977-59.886c-.864-3.458-3.505-6.194-6.93-7.182-12.651-3.649-24.838-8.685-36.22-14.967-3.12-1.721-6.921-1.653-9.977.18l-52.895 31.733-38.007-38.008 31.733-52.895c1.834-3.058 1.902-6.861.177-9.982-6.269-11.343-11.304-23.527-14.964-36.215-.988-3.425-3.725-6.064-7.183-6.929l-59.885-14.976v-53.746l59.886-14.976c3.458-.865 6.194-3.504 7.183-6.929 3.66-12.688 8.695-24.872 14.964-36.215 1.726-3.121 1.657-6.924-.177-9.982l-31.734-52.895 38.009-38.009 52.895 31.733c3.057 1.834 6.859 1.902 9.979.179 11.401-6.296 23.585-11.331 36.212-14.964 3.428-.986 6.07-3.724 6.936-7.184l14.975-59.885h53.744l14.977 59.886c.865 3.46 3.508 6.197 6.936 7.184 12.627 3.633 24.811 8.668 36.212 14.964 3.12 1.723 6.923 1.656 9.979-.179l52.895-31.733 38.009 38.009-31.733 52.895c-1.834 3.058-1.902 6.861-.177 9.982 6.269 11.343 11.304 23.527 14.964 36.215.988 3.425 3.725 6.064 7.183 6.929l59.883 14.975z" fill="#000000" data-original="#000000" class=""></path><circle cx="350" cy="340" r="10" fill="#000000" data-original="#000000" class=""></circle><path d="m256 120c-74.99 0-136 61.009-136 136s61.01 136 136 136c21.955 0 43.785-5.379 63.131-15.557 4.888-2.572 6.766-8.619 4.193-13.506s-8.62-6.765-13.506-4.194c-16.484 8.673-35.094 13.257-53.818 13.257-63.963 0-116-52.038-116-116s52.037-116 116-116 116 52.038 116 116c0 14.476-2.644 28.601-7.857 41.981-2.006 5.146.541 10.943 5.687 12.949 5.151 2.004 10.944-.542 12.948-5.687 6.119-15.705 9.222-32.273 9.222-49.243 0-74.991-61.01-136-136-136z" fill="#000000" data-original="#000000" class=""></path></g></svg>