<svg xmlns="http://www.w3.org/2000/svg" version="1.1" xmlns:xlink="http://www.w3.org/1999/xlink" xmlns:svgjs="http://svgjs.com/svgjs" width="512" height="512" x="0" y="0" viewBox="0 0 48 48" style="enable-background:new 0 0 512 512" xml:space="preserve" class=""><g><g id="Notification"><path d="M40.3335,40H7.6665a3.6664,3.6664,0,0,1-2.1992-6.6l1.647-1.2353a2.9866,2.9866,0,0,0,1.16-1.9126l2.0664-12.544a13.8216,13.8216,0,0,1,27.32.0108l2.065,12.5332a2.9866,2.9866,0,0,0,1.16,1.9126L42.5332,33.4a3.6663,3.6663,0,0,1-2.2,6.6ZM24.0015,8A11.7572,11.7572,0,0,0,12.3159,18.0225L10.248,30.5771a4.9788,4.9788,0,0,1-1.9335,3.1871L6.667,35a1.6665,1.6665,0,0,0,1,3h32.667a1.6664,1.6664,0,0,0,1-2.9995l-1.648-1.2363a4.9788,4.9788,0,0,1-1.9335-3.1871L35.6855,18.0332A11.7588,11.7588,0,0,0,24.0015,8Z" fill="#000000" data-original="#000000" class=""></path><path d="M27,8.36a1,1,0,0,1-1-1V6a2,2,0,0,0-4,0V7.36a1,1,0,0,1-2,0V6a4,4,0,0,1,8,0V7.36A1,1,0,0,1,27,8.36Z" fill="#000000" data-original="#000000" class=""></path><path d="M24,46a7.0078,7.0078,0,0,1-7-7,1,1,0,0,1,2,0,5,5,0,0,0,10,0,1,1,0,0,1,2,0A7.0078,7.0078,0,0,1,24,46Z" fill="#000000" data-original="#000000" class=""></path></g></g></svg>