<svg xmlns="http://www.w3.org/2000/svg" version="1.1" xmlns:xlink="http://www.w3.org/1999/xlink" xmlns:svgjs="http://svgjs.com/svgjs" width="512" height="512" x="0" y="0" viewBox="0 0 24 24" style="enable-background:new 0 0 512 512" xml:space="preserve" class=""><g><path d="M22.017 5.831 21 5.145V1.5a.5.5 0 0 0-1 0v2.97L14.517.77a4.48 4.48 0 0 0-5.033 0L1.983 5.831A4.492 4.492 0 0 0 0 9.561V19.5C0 21.981 2.019 24 4.5 24h3a.5.5 0 0 0 .5-.5v-9c0-.827.673-1.5 1.5-1.5h5c.827 0 1.5.673 1.5 1.5v9a.5.5 0 0 0 .5.5h3c2.481 0 4.5-2.019 4.5-4.5V9.561a4.49 4.49 0 0 0-1.983-3.73ZM23 19.5c0 1.93-1.57 3.5-3.5 3.5H17v-8.5c0-1.378-1.121-2.5-2.5-2.5h-5A2.503 2.503 0 0 0 7 14.5V23H4.5C2.57 23 1 21.43 1 19.5V9.561c0-1.166.576-2.25 1.542-2.901l7.5-5.061a3.484 3.484 0 0 1 3.916 0l7.5 5.061A3.493 3.493 0 0 1 23 9.561V19.5Z" fill="#ffffff" data-original="#ffffff" class=""></path></g></svg>