<svg xmlns="http://www.w3.org/2000/svg" version="1.1" xmlns:xlink="http://www.w3.org/1999/xlink" xmlns:svgjs="http://svgjs.com/svgjs" width="512" height="512" x="0" y="0" viewBox="0 0 24 24" style="enable-background:new 0 0 512 512" xml:space="preserve" class=""><g><path d="M12 0C5.383 0 0 5.383 0 12s5.383 12 12 12 12-5.383 12-12S18.617 0 12 0ZM7 21.797V21c0-2.757 2.243-5 5-5s5 2.243 5 5v.797C15.499 22.566 13.799 23 12 23s-3.499-.434-5-1.203Zm11-.582V21c0-3.309-2.691-6-6-6s-6 2.691-6 6v.215C2.992 19.25 1 15.853 1 12 1 5.935 5.935 1 12 1s11 4.935 11 11c0 3.853-1.992 7.25-5 9.215ZM12 5C9.794 5 8 6.794 8 9s1.794 4 4 4 4-1.794 4-4-1.794-4-4-4Zm0 7c-1.654 0-3-1.346-3-3s1.346-3 3-3 3 1.346 3 3-1.346 3-3 3Z" fill="#ffffff" data-original="#000000" class=""></path></g></svg>